<svg width="18" height="18" viewBox="0 0 18 18" fill="none" xmlns="http://www.w3.org/2000/svg">
<path d="M8.98913 0.543213C4.44656 0.543213 0.764496 4.3239 0.764496 8.9928C0.764496 13.6617 4.44656 17.4424 8.98913 17.4424C13.5362 17.4424 17.2183 13.6617 17.2183 8.9928C17.2183 4.3239 13.5362 0.543213 8.98913 0.543213ZM9.81341 14.908H8.16939V13.2153H9.81341V14.908ZM11.5118 8.36501L10.7781 9.14161C10.1848 9.7508 9.81341 10.2623 9.81341 11.5272H8.16939V11.104C8.16939 10.1693 8.54076 9.32763 9.12953 8.71379L10.1531 7.64887C10.452 7.3466 10.6377 6.92342 10.6377 6.45839C10.6377 5.52368 9.89946 4.77033 8.98913 4.77033C8.08334 4.77033 7.34511 5.52368 7.34511 6.45839H5.70109C5.70109 4.59362 7.17301 3.07763 8.98913 3.07763C10.8098 3.07763 12.2817 4.59362 12.2817 6.45839C12.2817 7.20244 11.9919 7.87208 11.5118 8.36501Z" fill="white"/>
</svg>
