<svg width="18" height="23" viewBox="0 0 18 23" fill="none" xmlns="http://www.w3.org/2000/svg">
<mask id="mask0_79_7318" style="mask-type:luminance" maskUnits="userSpaceOnUse" x="0" y="0" width="18" height="23">
<path d="M0.759979 0.502625H17.2545V22.7869H0.759979V0.502625Z" fill="white"/>
</mask>
<g mask="url(#mask0_79_7318)">
<path d="M15.1531 7.8873H14.1296V5.77606C14.1296 2.86498 11.8288 0.502625 8.99369 0.502625C6.15854 0.502625 3.85782 2.86498 3.85782 5.77606V7.8873H2.82974C1.69749 7.8873 0.778107 8.83131 0.778107 9.99388V20.5408C0.778107 21.708 1.69749 22.6473 2.82974 22.6473H15.1531C16.2899 22.6473 17.2093 21.708 17.2093 20.5408V9.99388C17.2093 8.83131 16.2899 7.8873 15.1531 7.8873ZM8.99369 17.3786C7.85691 17.3786 6.93753 16.4345 6.93753 15.2673C6.93753 14.1001 7.85691 13.1561 8.99369 13.1561C10.1259 13.1561 11.0453 14.1001 11.0453 15.2673C11.0453 16.4345 10.1259 17.3786 8.99369 17.3786ZM12.1776 7.8873H5.80981V5.77606C5.80981 3.97175 7.23644 2.5069 8.99369 2.5069C10.7509 2.5069 12.1776 3.97175 12.1776 5.77606V7.8873Z" fill="white"/>
</g>
</svg>
