<svg width="18" height="20" viewBox="0 0 18 20" fill="none" xmlns="http://www.w3.org/2000/svg">
<mask id="mask0_79_7288" style="mask-type:luminance" maskUnits="userSpaceOnUse" x="0" y="0" width="18" height="20">
<path d="M0.764496 0.4104H17.2591V19.1278H0.764496V0.4104Z" fill="white"/>
</mask>
<g mask="url(#mask0_79_7288)">
<path d="M14.4737 13.6777C13.7808 13.6777 13.1558 13.9567 12.6803 14.4032L6.16758 10.5016C6.21739 10.2876 6.2491 10.0691 6.2491 9.84587C6.2491 9.61801 6.21739 9.39944 6.16758 9.18553L12.6123 5.32578C13.1015 5.79546 13.7536 6.08378 14.4737 6.08378C15.9909 6.08378 17.2183 4.82355 17.2183 3.27035C17.2183 1.71715 15.9909 0.452271 14.4737 0.452271C12.9611 0.452271 11.7337 1.71715 11.7337 3.27035C11.7337 3.49357 11.7654 3.71678 11.8152 3.92604L5.37047 7.79044C4.88134 7.32076 4.22917 7.02779 3.50453 7.02779C1.99185 7.02779 0.764496 8.29267 0.764496 9.84587C0.764496 11.3991 1.99185 12.6593 3.50453 12.6593C4.22917 12.6593 4.88134 12.371 5.37047 11.9013L11.8832 15.7983C11.8379 15.9982 11.8107 16.2028 11.8107 16.4167C11.8107 17.9234 13.0063 19.1511 14.4737 19.1511C15.9457 19.1511 17.1413 17.9234 17.1413 16.4167C17.1413 14.9054 15.9457 13.6777 14.4737 13.6777Z" fill="white"/>
</g>
</svg>
