<svg width="95" height="117" viewBox="0 0 95 117" fill="none" xmlns="http://www.w3.org/2000/svg">
<path fill-rule="evenodd" clip-rule="evenodd" d="M0.3396 109.017C0.3396 113.308 3.97638 116.763 8.42384 116.763H90.7653C92.9347 116.763 94.7146 115.097 94.7146 113.062C94.7146 76.6097 94.7146 40.1617 94.7146 3.71364C94.7146 1.66986 93.1476 0 91.2318 0C63.3106 0 35.3939 0 7.47275 0C3.55065 0 0.3396 3.42471 0.3396 7.60998V109.017ZM15.2762 97.4384V3.78162C17.1014 3.78162 18.9311 3.78162 20.7563 3.78162V97.4384C18.9311 97.4384 17.1014 97.4384 15.2762 97.4384ZM37.5135 37.6888V23.7392H48.759V13.4269H63.9718V23.7392H75.2173V37.6888H63.9718V48.0011H48.759V37.6888H37.5135ZM29.9275 63.9009H82.8034V88.1628H29.9275V63.9009ZM90.9963 101.224H8.89938C5.97819 101.224 3.57782 103.944 3.57782 107.258C3.57782 110.568 5.97819 113.291 8.89938 113.291H89.8142C90.4574 113.291 90.9963 112.68 90.9963 111.949V101.224Z" fill="white"/>
</svg>
