<svg width="28" height="28" viewBox="0 0 28 28" fill="none" xmlns="http://www.w3.org/2000/svg">
<path d="M26.0913 7.40159L16.3102 0.733435C15.6072 0.244478 14.8308 0 13.975 0C13.1192 0 12.3428 0.244478 11.6398 0.733435L1.85866 7.40159C1.2718 7.79886 0.819423 8.31227 0.48931 8.93569C0.159198 9.55911 -0.00585811 10.2253 0.000254686 10.9343V23.69C-0.00585811 24.2523 0.0980653 24.7901 0.312027 25.3096C0.519876 25.8291 0.819422 26.2875 1.21678 26.6848C1.60802 27.0821 2.0604 27.3938 2.58002 27.6138C3.09353 27.8339 3.63149 27.9439 4.1939 27.95C7.27977 27.95 9.78135 25.4484 9.78135 22.3625V19.5644C9.78135 19.1793 9.91584 18.8493 10.1909 18.5804C10.466 18.3053 10.7961 18.1709 11.1813 18.1709H16.7687C17.1539 18.1709 17.484 18.3053 17.7591 18.5804C18.0342 18.8493 18.1686 19.1793 18.1686 19.5644V22.3564C18.1686 25.4457 20.673 27.95 23.7622 27.95C24.3185 27.9439 24.8565 27.8339 25.37 27.6138C25.8896 27.3938 26.342 27.0821 26.7332 26.6848C27.1306 26.2875 27.4301 25.8291 27.6441 25.3096C27.8519 24.7901 27.9559 24.2523 27.9497 23.69V10.9343C27.9559 10.2253 27.7908 9.55911 27.4607 8.93569C27.1306 8.31227 26.6782 7.79886 26.0913 7.40159Z" fill="white"/>
</svg>
