<svg width="32" height="32" viewBox="0 0 32 32" fill="none" xmlns="http://www.w3.org/2000/svg">
<mask id="mask0_99_1288" style="mask-type:luminance" maskUnits="userSpaceOnUse" x="0" y="0" width="32" height="32">
<path d="M0 0H31.9479V31.9479H0V0Z" fill="white"/>
</mask>
<g mask="url(#mask0_99_1288)">
<mask id="mask1_99_1288" style="mask-type:luminance" maskUnits="userSpaceOnUse" x="0" y="0" width="32" height="32">
<path d="M15.974 0C7.15104 0 0 7.15104 0 15.974C0 24.7969 7.15104 31.9479 15.974 31.9479C24.7969 31.9479 31.9479 24.7969 31.9479 15.974C31.9479 7.15104 24.7969 0 15.974 0Z" fill="white"/>
</mask>
<g mask="url(#mask1_99_1288)">
<path d="M15.974 0C7.15104 0 0 7.15104 0 15.974C0 24.7969 7.15104 31.9479 15.974 31.9479C24.7969 31.9479 31.9479 24.7969 31.9479 15.974C31.9479 7.15104 24.7969 0 15.974 0Z" stroke="white" stroke-width="3.99357"/>
</g>
</g>
<mask id="mask2_99_1288" style="mask-type:luminance" maskUnits="userSpaceOnUse" x="5" y="8" width="21" height="18">
<path d="M5.80713 8.07288H25.7707V25.8593H5.80713V8.07288Z" fill="white"/>
</mask>
<g mask="url(#mask2_99_1288)">
<mask id="mask3_99_1288" style="mask-type:luminance" maskUnits="userSpaceOnUse" x="5" y="8" width="22" height="18">
<path d="M6.60931 10.9114C4.96347 13.6302 6.12493 16.2708 7.58327 17.6719L16.1145 25.8594L24.4635 17.7031C25.8229 16.1927 26.3437 14.5937 26.052 12.8125C25.6562 10.3489 23.6249 8.43228 21.1145 8.16145C19.5729 7.99478 18.0885 8.43228 16.927 9.39582C16.6145 9.65624 16.3333 9.9427 16.0937 10.2604C15.802 9.90103 15.4635 9.57291 15.0833 9.28124C13.7499 8.26562 12.052 7.86457 10.4166 8.17707C8.87493 8.47395 7.48431 9.47395 6.60931 10.9114Z" fill="white"/>
</mask>
<g mask="url(#mask3_99_1288)">
<path d="M6.60931 10.9114C4.96348 13.6302 6.12493 16.2708 7.58327 17.6719L16.1145 25.8594L24.4635 17.7031C25.8228 16.1927 26.3437 14.5937 26.052 12.8125C25.6562 10.3489 23.6249 8.43228 21.1145 8.16145C19.5728 7.99478 18.0885 8.43228 16.927 9.39582C16.6145 9.65624 16.3333 9.9427 16.0937 10.2604C15.802 9.90103 15.4635 9.57291 15.0833 9.28124C13.7499 8.26562 12.052 7.86457 10.4166 8.17707C8.87493 8.47395 7.48431 9.47395 6.60931 10.9114Z" stroke="white" stroke-width="3.99357"/>
</g>
</g>
</svg>
