<svg width="28" height="28" viewBox="0 0 28 28" fill="none" xmlns="http://www.w3.org/2000/svg">
<mask id="mask0_99_1205" style="mask-type:luminance" maskUnits="userSpaceOnUse" x="0" y="0" width="28" height="28">
<path d="M0 7.99999C0 3.58172 3.58172 0 8 0H19.8301C24.2484 0 27.8301 3.58172 27.8301 8V19.8256C27.8301 24.2439 24.2484 27.8256 19.8301 27.8256H8C3.58172 27.8256 0 24.2439 0 19.8256V7.99999Z" fill="white"/>
</mask>
<g mask="url(#mask0_99_1205)">
<path d="M27.8301 13.9128C27.8301 14.8246 27.7394 15.7319 27.5625 16.6255C27.381 17.5237 27.1179 18.3947 26.7686 19.2384C26.4194 20.0822 25.9929 20.8805 25.4849 21.6426C24.9768 22.4002 24.4007 23.1033 23.752 23.752C23.1079 24.3962 22.4047 24.9723 21.6426 25.4803C20.8851 25.9884 20.0822 26.4148 19.2384 26.7686C18.3947 27.1179 17.5237 27.381 16.63 27.558C15.7319 27.7349 14.8291 27.8256 13.9173 27.8256C13.001 27.8256 12.0983 27.7349 11.2001 27.558C10.3065 27.381 9.43548 27.1179 8.59173 26.7686C7.74798 26.4148 6.94506 25.9884 6.1875 25.4803C5.4254 24.9723 4.72228 24.3962 4.07812 23.752C3.42944 23.1033 2.85333 22.4002 2.34526 21.6426C1.8372 20.8805 1.41079 20.0822 1.06149 19.2384C0.712198 18.3947 0.449093 17.5237 0.267641 16.6255C0.0907255 15.7319 0 14.8246 0 13.9128C0 13.001 0.0907255 12.0938 0.267641 11.2001C0.449093 10.3019 0.712198 9.43095 1.06149 8.5872C1.41079 7.74345 1.8372 6.94052 2.34526 6.18296C2.85333 5.4254 3.42944 4.72228 4.07812 4.07359C4.72228 3.42943 5.4254 2.85333 6.1875 2.34526C6.94506 1.8372 7.74798 1.40625 8.59173 1.05696C9.43548 0.707662 10.3065 0.444557 11.2001 0.267641C12.0983 0.0907255 13.001 0 13.9173 0C16.7309 0 19.24 0.55343 22.2207 2.92348C22.8588 3.43081 23.8518 3.00166 23.8518 2.18649C23.8518 2.00504 23.9199 1.84627 24.0469 1.71925C24.1784 1.5877 24.3327 1.52419 24.5141 1.52419C24.7001 1.52419 24.8543 1.5877 24.9859 1.71925C25.1129 1.84627 25.1764 2.00504 25.1764 2.18649V5.81552C25.1764 5.81552 25.1764 5.81552 25.1764 5.81552C25.1764 5.81552 25.1764 5.81552 25.1764 5.89718C25.19 5.99698 25.1764 6.09224 25.1447 6.1875C25.1129 6.27823 25.0585 6.35988 24.9859 6.43246C24.9178 6.5005 24.8317 6.5504 24.7409 6.58216C24.5551 6.6441 24.3523 6.60938 24.1564 6.60938H20.7399C20.5539 6.60938 20.3997 6.54587 20.2727 6.41885C20.1411 6.2873 20.0776 6.13306 20.0776 5.94708C20.0776 5.76562 20.1411 5.61139 20.2727 5.47984C20.3997 5.35282 20.5539 5.28478 20.7399 5.28478C21.5309 5.28478 21.8999 4.33616 21.2746 3.8518C18.6241 1.7988 16.3998 1.31099 13.9173 1.31099C13.0872 1.31099 12.2707 1.39264 11.4587 1.55141C10.6512 1.71472 9.86189 1.9506 9.0998 2.26815C8.33317 2.58569 7.6119 2.97127 6.92238 3.43397C6.2374 3.89214 5.59778 4.41381 5.01714 4.99446C4.43195 5.57964 3.91028 6.21472 3.45212 6.90423C2.98942 7.58921 2.60383 8.31502 2.28629 9.07712C1.96875 9.84375 1.73286 10.6285 1.56956 11.4405C1.40625 12.248 1.32913 13.0691 1.32913 13.8947C1.3246 14.7203 1.40625 15.5413 1.56956 16.3488C1.72833 17.1608 1.96875 17.9456 2.28175 18.7122C2.59929 19.4743 2.98488 20.2001 3.44304 20.8896C3.90575 21.5746 4.42742 22.2097 5.00806 22.7949C5.59325 23.38 6.22833 23.9017 6.91784 24.3599C7.60282 24.8226 8.32863 25.2082 9.09073 25.5257C9.85282 25.8432 10.6421 26.0837 11.4496 26.2424C12.2616 26.4057 13.0781 26.4874 13.9083 26.4874C14.7339 26.4874 15.5504 26.4057 16.3624 26.247C17.1744 26.0882 17.9592 25.8478 18.7213 25.5348C19.4879 25.2172 20.2137 24.8317 20.8987 24.3735C21.5882 23.9153 22.2233 23.3936 22.8085 22.8085C23.3937 22.2233 23.9153 21.5882 24.3735 20.9032C24.8362 20.2137 25.2218 19.4924 25.5393 18.7258C25.8569 17.9637 26.0973 17.1789 26.2606 16.3669C26.4194 15.5549 26.501 14.7384 26.501 13.9128C26.5101 12.5519 26.2969 11.2273 25.8659 9.93901C25.816 9.7621 25.8296 9.59425 25.9113 9.43548C25.9929 9.27218 26.12 9.16331 26.2923 9.10433C26.4647 9.04536 26.6326 9.05897 26.7959 9.14062C26.9592 9.22681 27.068 9.35383 27.127 9.52621C27.5988 10.9506 27.8301 12.4113 27.8301 13.9128ZM13.9173 5.29839C13.7314 5.29839 13.5771 5.36643 13.4456 5.49345C13.3185 5.625 13.2505 5.77923 13.2505 5.96069V10.8656C13.2505 12.9934 14.0981 15.0335 15.606 16.5348L17.4284 18.3493C17.5509 18.4854 17.7051 18.5534 17.8911 18.5534C18.0726 18.5534 18.2268 18.4854 18.3538 18.3493C18.4899 18.2268 18.5534 18.0726 18.5534 17.8866C18.5534 17.7051 18.4899 17.5509 18.3538 17.4239L16.9126 15.9775C15.4185 14.478 14.5796 12.4476 14.5796 10.3308V5.96069C14.5796 5.77923 14.5116 5.625 14.3846 5.49345C14.253 5.36643 14.0988 5.29839 13.9173 5.29839Z" fill="white"/>
</g>
</svg>
