<svg width="32" height="32" viewBox="0 0 32 32" fill="none" xmlns="http://www.w3.org/2000/svg">
<mask id="mask0_99_1265" style="mask-type:luminance" maskUnits="userSpaceOnUse" x="0" y="0" width="32" height="32">
<path d="M0 0H31.9479V31.9479H0V0Z" fill="white"/>
</mask>
<g mask="url(#mask0_99_1265)">
<path d="M15.974 0C7.16667 0 0 7.16667 0 15.974C0 24.7812 7.16667 31.9479 15.974 31.9479C24.7813 31.9479 31.9479 24.7812 31.9479 15.974C31.9479 7.16667 24.7813 0 15.974 0ZM7.00521 26.6771C7.15104 21.8542 11.1146 17.9688 15.974 17.9688C20.8333 17.9688 24.7969 21.8542 24.9479 26.6771C22.5156 28.7188 19.3906 29.9531 15.974 29.9531C12.5625 29.9531 9.43229 28.7188 7.00521 26.6771ZM10.9844 10.9792C10.9844 8.22917 13.224 5.98958 15.974 5.98958C18.7292 5.98958 20.9688 8.22917 20.9688 10.9792C20.9688 13.7344 18.7292 15.974 15.974 15.974C13.224 15.974 10.9844 13.7344 10.9844 10.9792ZM26.75 24.8646C26.026 21.1302 23.4115 18.0781 19.9427 16.724C21.7656 15.4635 22.9635 13.3594 22.9635 10.9792C22.9635 7.13021 19.8281 3.99479 15.974 3.99479C12.1198 3.99479 8.98438 7.13021 8.98438 10.9792C8.98438 13.3594 10.1823 15.4635 12.0052 16.7292C8.53646 18.0781 5.92188 21.1354 5.19792 24.8646C3.19792 22.4479 1.99479 19.349 1.99479 15.974C1.99479 8.26562 8.26562 1.99479 15.974 1.99479C23.6823 1.99479 29.9531 8.26562 29.9531 15.974C29.9531 19.349 28.75 22.4479 26.75 24.8646Z" fill="white"/>
</g>
</svg>
